<svg width="161" height="26" viewBox="0 0 161 26" fill="none" xmlns="http://www.w3.org/2000/svg">
<g clip-path="url(#clip0_1153_21665)">
<path d="M76.423 1.26367H50.9023V6.68792H76.423V1.26367Z" fill="#5BC5F2"/>
<path d="M76.3966 10.3965H50.8887V15.3126H76.3966V10.3965Z" fill="#FFCC00"/>
<path d="M76.423 19.1113H50.9023V24.6753H76.423V19.1113Z" fill="#E30613"/>
<path d="M0.699219 1.32617H11.7128L19.8175 16.3667L27.9221 1.32617H38.9357V24.7H31.9617V7.9064H31.8981L22.4978 24.7H17.1371L7.74946 7.9064H7.68595V24.7H0.699219V1.32617Z" fill="white"/>
<path d="M87.5371 9.55788C87.5371 2.8125 91.3226 1.22461 97.6869 1.22461H105.995C116.056 1.22461 117.351 3.38415 117.301 9.91357H110.238V9.27841C110.238 7.627 109.031 7.14428 106.935 7.14428H99.224C95.502 7.14428 94.8033 8.89731 94.8033 11.7555V14.2453C94.8033 17.5863 95.502 18.8566 98.8429 18.8566H106.376C109.552 18.8566 110.517 18.539 110.517 15.6681H117.58V17.8403C117.58 21.7148 116.183 24.7763 109.082 24.7763H97.6869C91.3226 24.7763 87.5371 23.1884 87.5371 16.443V9.55788Z" fill="white"/>
<path d="M138.106 1.32812H147.443L160.286 24.7019H152.321L150.098 20.5734H135.566L133.47 24.7019H125.467L138.119 1.32812H138.106ZM138.246 15.5429H147.418L142.768 6.75237L138.246 15.5429Z" fill="white"/>
</g>
<defs>
<clipPath id="clip0_1153_21665">
<rect width="160" height="25.8065" fill="white" transform="translate(0.5 0.0976562)"/>
</clipPath>
</defs>
</svg>
